<?xml version="1.0" encoding="UTF-8"?>
<svg xmlns="http://www.w3.org/2000/svg" xmlns:xlink="http://www.w3.org/1999/xlink" width="71px" height="40px" viewBox="0 0 71 40" version="1.1">
<g id="surface1">
<path style=" stroke:none;fill-rule:evenodd;fill:rgb(98.431373%,98.431373%,98.431373%);fill-opacity:1;" d="M 24.597656 5.929688 C 21.984375 6.175781 20.683594 9.183594 22.273438 11.304688 C 23.890625 13.460938 27.3125 12.804688 28.050781 10.195312 C 28.695312 7.929688 26.894531 5.710938 24.597656 5.929688 M 41.277344 14.742188 C 39.382812 14.996094 37.777344 16.050781 36.859375 17.648438 C 36.769531 17.800781 36.757812 17.664062 36.757812 16.398438 L 36.757812 15.140625 L 31.316406 15.140625 L 31.316406 33.71875 L 36.992188 33.71875 L 36.992188 29 C 36.992188 23.492188 37.003906 23.195312 37.210938 22.296875 C 37.617188 20.546875 38.71875 19.710938 40.546875 19.773438 C 42.070312 19.820312 42.902344 20.59375 43.21875 22.238281 C 43.367188 23.007812 43.367188 23.164062 43.367188 28.628906 L 43.367188 33.71875 L 49.074219 33.71875 L 49.066406 27.875 C 49.050781 21.9375 49.050781 21.859375 48.941406 20.886719 C 48.527344 17.289062 47.015625 15.398438 44.125 14.84375 C 43.367188 14.695312 41.992188 14.648438 41.277344 14.742188 M 22.042969 24.429688 L 22.042969 33.71875 L 27.71875 33.71875 L 27.71875 15.140625 L 22.042969 15.140625 L 22.042969 24.429688 "/>
<path style=" stroke:none;fill-rule:evenodd;fill:rgb(1.568627%,48.627451%,70.588235%);fill-opacity:1;" d="M 18.753906 0.554688 C 18.050781 0.652344 17.308594 1.09375 16.910156 1.644531 C 16.835938 1.742188 16.769531 1.835938 16.757812 1.851562 C 16.613281 2.039062 16.433594 2.480469 16.367188 2.832031 C 16.277344 3.253906 16.28125 36.761719 16.367188 37.191406 C 16.582031 38.261719 17.328125 39.058594 18.433594 39.398438 C 18.707031 39.480469 52.378906 39.480469 52.65625 39.398438 C 53.320312 39.195312 53.847656 38.835938 54.214844 38.339844 C 54.394531 38.09375 54.535156 37.820312 54.640625 37.523438 L 54.734375 37.257812 L 54.738281 20.117188 C 54.75 7.542969 54.738281 2.929688 54.71875 2.800781 C 54.597656 2.148438 54.203125 1.523438 53.644531 1.105469 C 53.402344 0.929688 53.058594 0.746094 52.816406 0.675781 C 52.726562 0.648438 52.601562 0.609375 52.539062 0.585938 C 52.425781 0.550781 19.019531 0.515625 18.753906 0.554688 M 25.421875 5.960938 C 27.539062 6.257812 28.804688 8.707031 27.867188 10.683594 C 26.800781 12.941406 23.75 13.277344 22.273438 11.304688 C 20.453125 8.875 22.421875 5.53125 25.421875 5.960938 M 43.394531 14.742188 C 46.757812 15.085938 48.492188 17.007812 48.941406 20.886719 C 49.050781 21.859375 49.050781 21.9375 49.066406 27.875 L 49.074219 33.71875 L 43.367188 33.71875 L 43.367188 28.628906 C 43.367188 23.164062 43.367188 23.007812 43.21875 22.238281 C 42.902344 20.59375 42.070312 19.820312 40.546875 19.773438 C 38.71875 19.710938 37.617188 20.546875 37.210938 22.296875 C 37.003906 23.195312 36.992188 23.492188 36.992188 29 L 36.992188 33.71875 L 31.316406 33.71875 L 31.316406 15.140625 L 36.757812 15.140625 L 36.757812 16.398438 C 36.757812 17.664062 36.769531 17.800781 36.859375 17.648438 C 38.113281 15.460938 40.429688 14.433594 43.394531 14.742188 M 27.71875 24.429688 L 27.71875 33.71875 L 22.042969 33.71875 L 22.042969 15.140625 L 27.71875 15.140625 L 27.71875 24.429688 "/>
</g>
</svg>
