<?xml version="1.0" encoding="UTF-8"?>
<svg xmlns="http://www.w3.org/2000/svg" xmlns:xlink="http://www.w3.org/1999/xlink" width="89px" height="50px" viewBox="0 0 88 50" version="1.1">
<g id="surface1">
<path style=" stroke:none;fill-rule:evenodd;fill:rgb(98.431373%,98.431373%,98.431373%);fill-opacity:1;" d="M 30.332031 7.410156 C 27.058594 7.71875 25.429688 11.480469 27.417969 14.128906 C 29.445312 16.828125 33.738281 16.003906 34.664062 12.742188 C 35.46875 9.914062 33.214844 7.140625 30.332031 7.410156 M 51.242188 18.429688 C 48.867188 18.746094 46.855469 20.0625 45.703125 22.058594 C 45.589844 22.25 45.578125 22.078125 45.578125 20.496094 L 45.578125 18.925781 L 38.757812 18.925781 L 38.757812 42.148438 L 45.871094 42.148438 L 45.871094 36.25 C 45.871094 29.363281 45.882812 28.996094 46.144531 27.871094 C 46.652344 25.683594 48.035156 24.636719 50.324219 24.714844 C 52.234375 24.777344 53.28125 25.742188 53.675781 27.796875 C 53.859375 28.757812 53.863281 28.953125 53.863281 35.785156 L 53.863281 42.148438 L 61.015625 42.148438 L 61.003906 34.84375 C 60.988281 27.421875 60.988281 27.324219 60.847656 26.109375 C 60.328125 21.613281 58.4375 19.25 54.8125 18.554688 C 53.859375 18.371094 52.136719 18.3125 51.242188 18.429688 M 27.132812 30.539062 L 27.132812 42.148438 L 34.246094 42.148438 L 34.246094 18.925781 L 27.132812 18.925781 L 27.132812 30.539062 "/>
<path style=" stroke:none;fill-rule:evenodd;fill:rgb(1.568627%,48.627451%,70.588235%);fill-opacity:1;" d="M 23.007812 0.691406 C 22.128906 0.816406 21.195312 1.367188 20.695312 2.054688 C 20.605469 2.179688 20.519531 2.292969 20.503906 2.316406 C 20.324219 2.550781 20.101562 3.101562 20.015625 3.539062 C 19.90625 4.066406 19.910156 45.953125 20.015625 46.488281 C 20.285156 47.828125 21.21875 48.824219 22.605469 49.246094 C 22.949219 49.351562 65.160156 49.351562 65.503906 49.246094 C 66.339844 48.992188 67 48.542969 67.457031 47.925781 C 67.683594 47.617188 67.863281 47.277344 67.992188 46.90625 L 68.109375 46.574219 L 68.117188 25.148438 C 68.128906 9.429688 68.117188 3.664062 68.089844 3.5 C 67.9375 2.683594 67.445312 1.90625 66.742188 1.382812 C 66.441406 1.160156 66.007812 0.933594 65.707031 0.84375 C 65.59375 0.8125 65.4375 0.761719 65.359375 0.734375 C 65.21875 0.6875 23.34375 0.644531 23.007812 0.691406 M 31.367188 7.449219 C 34.019531 7.824219 35.605469 10.882812 34.433594 13.355469 C 33.097656 16.175781 29.273438 16.597656 27.417969 14.128906 C 25.136719 11.09375 27.605469 6.914062 31.367188 7.449219 M 53.894531 18.425781 C 58.113281 18.859375 60.285156 21.261719 60.847656 26.109375 C 60.988281 27.324219 60.988281 27.421875 61.003906 34.84375 L 61.015625 42.148438 L 53.863281 42.148438 L 53.863281 35.785156 C 53.863281 28.953125 53.859375 28.757812 53.675781 27.796875 C 53.28125 25.742188 52.234375 24.777344 50.324219 24.714844 C 48.035156 24.636719 46.652344 25.683594 46.144531 27.871094 C 45.882812 28.996094 45.871094 29.363281 45.871094 36.25 L 45.871094 42.148438 L 38.757812 42.148438 L 38.757812 18.925781 L 45.578125 18.925781 L 45.578125 20.496094 C 45.578125 22.078125 45.589844 22.25 45.703125 22.058594 C 47.277344 19.328125 50.179688 18.042969 53.894531 18.425781 M 34.246094 30.539062 L 34.246094 42.148438 L 27.132812 42.148438 L 27.132812 18.925781 L 34.246094 18.925781 L 34.246094 30.539062 "/>
</g>
</svg>
